<svg width="700" height="120" viewBox="0 0 700 120" fill="none" xmlns="http://www.w3.org/2000/svg">
  <rect width="700" height="120" rx="18" fill="transparent"/>
  <path d="M40 66H82L96 48L110 84L132 20L150 76L164 52L176 66H210" stroke="#1E2F59" stroke-width="8" stroke-linecap="round" stroke-linejoin="round"/>
  <rect x="210" y="38" width="126" height="58" rx="10" stroke="#1E2F59" stroke-width="8"/>
  <circle cx="230" cy="50" r="4.5" fill="#1E2F59"/>
  <circle cx="246" cy="50" r="4.5" fill="#1E2F59"/>
  <circle cx="262" cy="50" r="4.5" fill="#1E2F59"/>
  <path d="M235 84C242 68 257 58 273 58C289 58 304 68 311 84" stroke="#1E2F59" stroke-width="6" stroke-linecap="round"/>
  <path d="M273 84L304 57" stroke="#2563EB" stroke-width="6" stroke-linecap="round"/>
  <circle cx="273" cy="84" r="5" fill="#2563EB"/>
  <text x="362" y="82" font-family="Arial, Helvetica, sans-serif" font-weight="700" font-size="62" fill="#1E2F59">Site</text>
  <text x="480" y="82" font-family="Arial, Helvetica, sans-serif" font-weight="700" font-size="62" fill="#2563EB">Pulse</text>
</svg>
